# xmcd
#
# Track frame offsets:
#	150
#	18369
#	45748
#	71639
#	94549
#	116011
#	136970
#	158397
#	186820
#	214213
#	240490
#	272726
#	292123
#	316087
#	333709
#
# Disc length: 4745 seconds
#
# Revision: 0
# Processed by: cddbd v1.5.2PL0 Copyright (c) Steve Scherf et al.
# Submitted via: MusicManager 7.3.0.0 
#
DISCID=d612870f
DTITLE=Heston - Story Teller
DYEAR=1074
DGENRE=blues
TTITLE0=My Baby
TTITLE1=Distan Lover
TTITLE2=Easy
TTITLE3=No Way, No How
TTITLE4=Your Perfume
TTITLE5=Radio
TTITLE6=Sumthing In The Water
TTITLE7=Brand New You
TTITLE8=Dreamy Eyes
TTITLE9=Feel Like Dancing
TTITLE10=Like Sunshine
TTITLE11=Good Morning America
TTITLE12=Hello Sunday
TTITLE13=Sunny Days
TTITLE14=Songbirds
EXTD=
EXTT0=
EXTT1=
EXTT2=
EXTT3=
EXTT4=
EXTT5=
EXTT6=
EXTT7=
EXTT8=
EXTT9=
EXTT10=
EXTT11=
EXTT12=
EXTT13=
EXTT14=
PLAYORDER=
